#define redhat_width 18
#define redhat_height 18
static unsigned char redhat_bits[] = {
   0x00, 0x00, 0x00, 0x00, 0x00, 0x00, 0x00, 0x00, 0x00, 0xc0, 0x7f, 0x00,
   0x60, 0xc0, 0x00, 0xf8, 0xc0, 0x01, 0x78, 0xc1, 0x03, 0x40, 0x80, 0x03,
   0x84, 0x03, 0x03, 0x0c, 0x07, 0x02, 0x1c, 0x04, 0x02, 0x1c, 0x00, 0x00,
   0x9c, 0x00, 0x03, 0x2c, 0x8b, 0x03, 0x00, 0xc0, 0x03, 0x00, 0xc0, 0x01,
   0x00, 0x20, 0x00, 0x00, 0x00, 0x00 };
